<?xml version="1.0" encoding="utf-8"?>
<!-- Generator: Adobe Illustrator 27.7.0, SVG Export Plug-In . SVG Version: 6.00 Build 0)  -->
<svg version="1.1" id="Layer_1" xmlns="http://www.w3.org/2000/svg" xmlns:xlink="http://www.w3.org/1999/xlink" x="0px" y="0px"
	 viewBox="0 0 413.4 138.7" style="enable-background:new 0 0 413.4 138.7;" xml:space="preserve">
<style type="text/css">
	.st0{fill:#00FFB0;}
</style>
<g>
	<g>
		<path class="st0" d="M85.4,58.7v-7.7H72.9l0-11.4h-9.7v11.4h-6.4h-6.4h-10h-5.9v7.7h5.9V92c0,1.8-0.5,3.2-1.5,4.2
			s-2.4,1.5-4.2,1.5h-3.1v8.8h2.5c3.9,0,7-0.5,9.4-1.5s4.1-2.6,5.3-4.8c1.1-2.2,1.7-5.2,1.7-8.9V58.7h6.4h6.4v17.5
			c0,3.9,0.6,7,1.8,9.3c1.2,2.3,2.9,3.9,5.4,4.9c2.4,1,5.5,1.4,9.3,1.4h5.8V83h-6.3c-2,0-3.5-0.5-4.6-1.6c-1.1-1.1-1.6-2.6-1.6-4.6
			l0-18.2L85.4,58.7L85.4,58.7z"/>
		<polygon class="st0" points="45.7,47.4 46.6,40.4 53.6,39.5 46.6,38.6 45.7,31.6 44.8,38.6 37.8,39.5 44.8,40.4 		"/>
	</g>
	<g>
		<path class="st0" d="M119.9,51.4v7.7h5.9v33.3c0,1.8-0.5,3.2-1.4,4.2c-1,1-2.4,1.5-4.2,1.5H117v8.8h2.4c3.9,0,7-0.5,9.4-1.5
			c2.4-1,4.1-2.6,5.3-4.8c1.1-2.2,1.7-5.2,1.7-8.9V59.2v-7.7h-10H119.9z"/>
		<path class="st0" d="M129.2,46.3c2,0,3.5-0.5,4.5-1.6s1.4-2.4,1.4-4c0-1.7-0.5-3-1.4-4.1s-2.5-1.6-4.5-1.6c-2,0-3.5,0.5-4.5,1.6
			s-1.5,2.4-1.5,4.1c0,1.6,0.5,3,1.5,4C125.8,45.8,127.2,46.3,129.2,46.3z"/>
		<path class="st0" d="M183,56.3c-1.9-2-4.2-3.5-6.9-4.6c-2.7-1.1-5.8-1.7-9.2-1.7s-6.5,0.6-9.3,1.7c-2.8,1.1-5.1,2.7-7,4.6
			s-3.4,4.2-4.4,6.7s-1.5,5.2-1.5,7.9v1.6c0,2.7,0.5,5.3,1.4,7.8c1,2.5,2.4,4.7,4.3,6.6s4.2,3.5,6.9,4.6s5.9,1.7,9.4,1.7
			c3.5,0,6.6-0.6,9.4-1.7s5-2.7,6.9-4.6c1.9-1.9,3.3-4.1,4.3-6.6s1.4-5.1,1.4-7.8v-1.6c0-2.8-0.5-5.4-1.5-7.9
			C186.4,60.5,184.9,58.3,183,56.3z M177.2,78.2c-0.9,1.9-2.2,3.4-4,4.5c-1.7,1.1-3.8,1.7-6.3,1.7c-2.5,0-4.7-0.6-6.4-1.7
			c-1.7-1.1-3.1-2.6-4-4.5s-1.4-4.1-1.4-6.5s0.5-4.6,1.4-6.6c0.9-1.9,2.3-3.5,4.1-4.6c1.8-1.1,3.9-1.7,6.3-1.7s4.5,0.6,6.2,1.7
			c1.7,1.1,3.1,2.6,4,4.6s1.4,4.1,1.4,6.6C178.5,74.1,178.1,76.3,177.2,78.2z"/>
		<path class="st0" d="M224.9,40h-9.7v11.4h-6.4V59h6.4v17.6c0,3.9,0.6,7,1.8,9.3c1.2,2.3,2.9,3.9,5.4,4.9c2.4,1,5.5,1.4,9.3,1.4
			h5.8v-8.8H231c-2,0-3.5-0.5-4.6-1.6c-1.1-1.1-1.6-2.6-1.6-4.6l0-18.3h12.5v-7.6h-12.4L224.9,40z"/>
		<path class="st0" d="M269.1,50.2h-0.4c-3.2,0-5.8,0.7-7.9,2.2c-1.9,1.4-3.4,3.5-4.4,6V37.5h-10.3v54.3h10.3V69.2v-0.7
			c0-2.7,0.8-4.8,2.3-6.5c1.6-1.7,3.6-2.5,6.1-2.5c2.3,0,4.2,0.8,5.7,2.3c1.5,1.5,2.2,3.5,2.2,6.1v24h10.3V68.8
			c0-6-1.2-10.7-3.6-13.8C277.2,51.8,273.7,50.2,269.1,50.2z"/>
		<path class="st0" d="M322.9,52.9c-3-1.9-6.6-2.9-11-2.9c-3.3,0-6.3,0.6-8.8,1.8s-4.7,2.7-6.4,4.7c-1.7,2-3,4.2-3.8,6.7
			c-0.9,2.5-1.3,5.1-1.3,7.8v1.4c0,2.6,0.4,5.1,1.3,7.6c0.9,2.5,2.2,4.7,3.9,6.7s3.9,3.6,6.5,4.8s5.6,1.8,9.1,1.8
			c3.3,0,6.3-0.6,8.9-1.7s4.8-2.8,6.4-4.8c1.7-2.1,2.8-4.5,3.4-7.3h-9.6c-0.4,1.5-1.5,2.7-3,3.8c-1.6,1-3.6,1.5-6.1,1.5
			c-2.5,0-4.6-0.6-6.2-1.7c-1.6-1.1-2.9-2.7-3.6-4.6c-0.5-1.3-0.8-2.7-1-4.2h30.3v-3.8c0-3.6-0.7-6.9-2.2-10
			C328,57.3,325.8,54.8,322.9,52.9z M306.1,60.2c1.6-1.1,3.5-1.6,5.8-1.6s4.2,0.5,5.6,1.5c1.5,1,2.6,2.4,3.4,4.2
			c0.4,1,0.7,2.2,0.9,3.5h-20.2c0.2-1.1,0.5-2.2,0.9-3.1C303.3,62.7,304.5,61.2,306.1,60.2z"/>
		<path class="st0" d="M380.3,63c-1-2.5-2.4-4.7-4.4-6.7c-1.9-2-4.2-3.5-7-4.6c-2.7-1.1-5.8-1.7-9.2-1.7s-6.5,0.6-9.3,1.7
			c-2.8,1.1-5.1,2.7-7,4.6s-3.4,4.2-4.4,6.7c-1,2.5-1.5,5.2-1.5,7.9v1.6c0,2.7,0.5,5.3,1.5,7.8c1,2.5,2.4,4.7,4.3,6.6
			c1.9,1.9,4.2,3.5,6.9,4.6s5.9,1.7,9.5,1.7c3.5,0,6.6-0.6,9.4-1.7c2.7-1.1,5-2.7,6.9-4.6c1.9-1.9,3.3-4.1,4.3-6.6s1.5-5.1,1.5-7.8
			v-1.6C381.8,68.1,381.3,65.5,380.3,63z M370.1,78.2c-0.9,1.9-2.2,3.4-4,4.5c-1.7,1.1-3.8,1.7-6.3,1.7c-2.5,0-4.7-0.6-6.4-1.7
			c-1.7-1.1-3.1-2.6-4-4.5s-1.4-4.1-1.4-6.5s0.5-4.6,1.4-6.6c0.9-1.9,2.3-3.5,4-4.6c1.8-1.1,3.9-1.7,6.3-1.7c2.4,0,4.5,0.6,6.2,1.7
			c1.7,1.1,3.1,2.6,4,4.6s1.4,4.1,1.4,6.6C371.5,74.1,371,76.3,370.1,78.2z"/>
		<polygon class="st0" points="200.5,83.9 199.6,90.9 192.6,91.8 199.6,92.7 200.5,99.7 201.4,92.7 208.4,91.8 201.4,90.9 		"/>
	</g>
</g>
</svg>
