<svg width="140" height="30" viewBox="0 0 140 30" fill="none" xmlns="http://www.w3.org/2000/svg">
<path d="M21.3797 10.7475V7.66995H16.4294L16.4374 3.1451H12.5646V7.66995H10.0199H7.47515H3.48708H1.15308V10.7475H3.48708V23.996C3.48708 24.7236 3.29623 25.2882 2.91054 25.6819C2.52485 26.0755 1.96819 26.2743 1.24056 26.2743H0V29.7932H0.974157C2.51293 29.7932 3.75348 29.5944 4.6998 29.2008C5.64613 28.8071 6.34593 28.1709 6.79921 27.2922C7.25249 26.4135 7.47913 25.2365 7.47913 23.7574V10.7475H10.0239H12.5686V17.6978C12.5686 19.2564 12.7992 20.493 13.2644 21.4115C13.7296 22.33 14.4374 22.9781 15.3956 23.3638C16.3499 23.7495 17.5785 23.9403 19.0775 23.9403H21.3837V20.4214H18.8708C18.0835 20.4214 17.4752 20.2107 17.0537 19.7853C16.6282 19.3598 16.4175 18.7554 16.4175 17.9682L16.4334 10.7515H21.3797V10.7475Z" fill="#00FFB0"/>
<path d="M5.58648 6.29026L5.94433 3.50298L8.73161 3.14513L5.94433 2.78728L5.58648 0L5.22863 2.78728L2.44135 3.14513L5.22863 3.50298L5.58648 6.29026Z" fill="#00FFB0"/>
<path d="M35.1054 7.87675V10.9543H37.4394V24.2028C37.4394 24.9304 37.2485 25.4951 36.8628 25.8887C36.4771 26.2823 35.9205 26.4811 35.1928 26.4811H33.9523V30H34.9264C36.4652 30 37.7058 29.8012 38.6521 29.4076C39.5984 29.0139 40.2982 28.3778 40.7515 27.499C41.2048 26.6203 41.4314 25.4434 41.4314 23.9642V10.9543V7.87675H37.4433H35.1054Z" fill="#00FFB0"/>
<path d="M38.8032 5.83694C39.6104 5.83694 40.2068 5.63018 40.5925 5.21667C40.9782 4.80315 41.169 4.27034 41.169 3.61826C41.169 2.94629 40.9782 2.40553 40.5925 1.99201C40.2068 1.57849 39.6104 1.37173 38.8032 1.37173C38.012 1.37173 37.4235 1.57849 37.0299 1.99201C36.6362 2.40553 36.4374 2.94629 36.4374 3.61826C36.4374 4.27034 36.6322 4.80315 37.0299 5.21667C37.4235 5.63018 38.0159 5.83694 38.8032 5.83694Z" fill="#00FFB0"/>
<path d="M60.1988 9.81315C59.4394 9.03382 58.5169 8.4215 57.4354 7.98015C56.3499 7.53879 55.1293 7.31613 53.7694 7.31613C52.4096 7.31613 51.181 7.53879 50.0875 7.98015C48.9941 8.42547 48.0676 9.03382 47.3082 9.81315C46.5487 10.5925 45.9722 11.4792 45.5786 12.4732C45.1849 13.4672 44.9861 14.5209 44.9861 15.6223V16.2426C44.9861 17.3281 45.177 18.3619 45.5627 19.3479C45.9483 20.334 46.513 21.2127 47.2644 21.9801C48.0159 22.7475 48.9304 23.3599 50.0159 23.8131C51.1014 24.2664 52.3499 24.4931 53.7734 24.4931C55.173 24.4931 56.4136 24.2664 57.499 23.8131C58.5845 23.3599 59.499 22.7475 60.2505 21.9801C60.9981 21.2127 61.5666 20.334 61.9523 19.3479C62.338 18.3619 62.5289 17.3281 62.5289 16.2426V15.6223C62.5289 14.5169 62.3301 13.4672 61.9364 12.4732C61.5348 11.4831 60.9583 10.5925 60.1988 9.81315ZM57.8649 18.509C57.499 19.2684 56.9702 19.8688 56.2823 20.3141C55.5905 20.7595 54.7555 20.9782 53.7694 20.9782C52.7635 20.9782 51.9165 20.7555 51.2247 20.3141C50.5368 19.8728 50.008 19.2684 49.6422 18.509C49.2764 17.7495 49.0974 16.8867 49.0974 15.9205C49.0974 14.9543 49.2843 14.0875 49.6581 13.3161C50.0318 12.5487 50.5686 11.9404 51.2684 11.499C51.9682 11.0537 52.8032 10.835 53.7694 10.835C54.7356 10.835 55.5627 11.0577 56.2545 11.499C56.9464 11.9404 57.4752 12.5487 57.8529 13.3161C58.2307 14.0835 58.4136 14.9543 58.4136 15.9205C58.4096 16.8867 58.2267 17.7495 57.8649 18.509Z" fill="#00FFB0"/>
<path d="M76.8629 3.35191H72.9901V7.87676H70.4454V10.8947H72.9901V17.9046C72.9901 19.4632 73.2207 20.6998 73.6859 21.6183C74.1511 22.5368 74.8589 23.1849 75.8171 23.5706C76.7714 23.9563 78.0001 24.1471 79.4991 24.1471H81.8052V20.6283H79.2923C78.505 20.6283 77.8967 20.4175 77.4752 19.9921C77.0497 19.5666 76.839 18.9623 76.839 18.175L76.8549 10.8986H81.8092V7.88074H76.8629V3.35191Z" fill="#00FFB0"/>
<path d="M94.4334 7.37572H94.2584C92.998 7.37572 91.9562 7.66996 91.1371 8.2624C90.3658 8.81906 89.7892 9.63417 89.3797 10.664V2.3459H85.2683V23.9364H89.3797V14.9463V14.6521C89.3797 13.5865 89.6898 12.7236 90.3101 12.0636C90.9304 11.4036 91.7455 11.0735 92.7475 11.0735C93.6739 11.0735 94.4333 11.3757 95.0258 11.9761C95.6182 12.5765 95.9125 13.3797 95.9125 14.3857V23.9364H100.024V14.7674C100.024 12.3618 99.5506 10.5288 98.6043 9.26837C97.654 8.00793 96.2664 7.37572 94.4334 7.37572Z" fill="#00FFB0"/>
<path d="M115.797 8.45331C114.624 7.69387 113.169 7.31613 111.435 7.31613C110.115 7.31613 108.946 7.54675 107.932 8.01196C106.919 8.47717 106.072 9.09744 105.404 9.87677C104.732 10.6561 104.223 11.5428 103.881 12.5368C103.535 13.5308 103.364 14.5607 103.364 15.6263V16.1869C103.364 17.2128 103.535 18.2187 103.881 19.2048C104.227 20.1909 104.74 21.0815 105.42 21.8807C106.099 22.6799 106.958 23.3161 107.992 23.7893C109.026 24.2624 110.235 24.501 111.614 24.501C112.934 24.501 114.115 24.2744 115.149 23.8211C116.183 23.3678 117.038 22.7277 117.706 21.8966C118.378 21.0696 118.831 20.1034 119.066 18.998H115.249C115.074 19.5905 114.668 20.0875 114.036 20.4931C113.404 20.8986 112.596 21.1014 111.61 21.1014C110.604 21.1014 109.777 20.8788 109.125 20.4374C108.473 19.9921 107.992 19.3837 107.678 18.6044C107.475 18.0994 107.36 17.5308 107.288 16.9344H119.332V15.4195C119.332 14 119.038 12.676 118.445 11.4434C117.853 10.2108 116.974 9.21275 115.797 8.45331ZM109.129 11.3519C109.761 10.9265 110.529 10.7157 111.435 10.7157C112.342 10.7157 113.089 10.9106 113.682 11.3082C114.274 11.7018 114.72 12.2664 115.026 12.9941C115.197 13.4076 115.308 13.8768 115.384 14.3857H107.332C107.412 13.9364 107.531 13.5189 107.69 13.1452C108.02 12.3738 108.501 11.7774 109.129 11.3519Z" fill="#00FFB0"/>
<path d="M138.644 12.4771C138.251 11.4831 137.674 10.5924 136.915 9.81709C136.155 9.03776 135.233 8.42544 134.151 7.98408C133.066 7.54273 131.845 7.32007 130.485 7.32007C129.125 7.32007 127.897 7.54273 126.803 7.98408C125.71 8.42941 124.783 9.03776 124.024 9.81709C123.264 10.5964 122.688 11.4831 122.294 12.4771C121.901 13.4712 121.702 14.5248 121.702 15.6262V16.2465C121.702 17.332 121.893 18.3658 122.278 19.3519C122.664 20.338 123.229 21.2167 123.98 21.9841C124.732 22.7515 125.646 23.3638 126.732 23.8171C127.817 24.2704 129.066 24.497 130.489 24.497C131.889 24.497 133.129 24.2704 134.215 23.8171C135.3 23.3638 136.215 22.7515 136.966 21.9841C137.714 21.2167 138.282 20.338 138.668 19.3519C139.054 18.3658 139.245 17.332 139.245 16.2465V15.6262C139.237 14.5209 139.038 13.4712 138.644 12.4771ZM134.581 18.5089C134.215 19.2684 133.686 19.8688 132.998 20.3141C132.306 20.7594 131.471 20.9781 130.485 20.9781C129.479 20.9781 128.632 20.7555 127.94 20.3141C127.252 19.8728 126.724 19.2684 126.358 18.5089C125.992 17.7495 125.813 16.8867 125.813 15.9205C125.813 14.9543 126 14.0875 126.374 13.3161C126.748 12.5487 127.284 11.9403 127.984 11.499C128.684 11.0537 129.519 10.835 130.485 10.835C131.451 10.835 132.278 11.0576 132.97 11.499C133.662 11.9403 134.191 12.5487 134.569 13.3161C134.946 14.0835 135.129 14.9543 135.129 15.9205C135.125 16.8867 134.942 17.7495 134.581 18.5089Z" fill="#00FFB0"/>
<path d="M67.1571 20.7952L66.7992 23.5785L64.012 23.9364L66.7992 24.2942L67.1571 27.0815L67.5149 24.2942L70.2982 23.9364L67.5149 23.5785L67.1571 20.7952Z" fill="#00FFB0"/>
</svg>
