<?xml version="1.0" encoding="utf-8"?>
<!-- Generator: Adobe Illustrator 27.7.0, SVG Export Plug-In . SVG Version: 6.00 Build 0)  -->
<svg version="1.1" id="Layer_1" xmlns="http://www.w3.org/2000/svg" xmlns:xlink="http://www.w3.org/1999/xlink" x="0px" y="0px"
	 viewBox="0 0 328.04 135.24" style="enable-background:new 0 0 328.04 135.24;" xml:space="preserve">
<style type="text/css">
	.st0{fill:#231F20;}
</style>
<g>
	<g>
		<path class="st0" d="M34.53,47.98v7.74h5.87v33.32c0,1.83-0.48,3.25-1.45,4.24c-0.97,0.99-2.37,1.49-4.2,1.49h-3.12v8.85h2.45
			c3.87,0,6.99-0.5,9.37-1.49c2.38-0.99,4.14-2.59,5.28-4.8c1.14-2.21,1.71-5.17,1.71-8.89V55.72v-7.74H40.4H34.53z"/>
		<path class="st0" d="M43.82,42.85c2.03,0,3.53-0.52,4.5-1.56c0.97-1.04,1.45-2.38,1.45-4.02c0-1.69-0.48-3.05-1.45-4.09
			c-0.97-1.04-2.47-1.56-4.5-1.56c-1.99,0-3.47,0.52-4.46,1.56c-0.99,1.04-1.49,2.4-1.49,4.09c0,1.64,0.49,2.98,1.49,4.02
			C40.35,42.33,41.84,42.85,43.82,42.85z"/>
		<path class="st0" d="M97.64,52.86c-1.91-1.96-4.23-3.5-6.95-4.61c-2.73-1.11-5.8-1.67-9.22-1.67c-3.42,0-6.51,0.56-9.26,1.67
			c-2.75,1.12-5.08,2.65-6.99,4.61c-1.91,1.96-3.36,4.19-4.35,6.69c-0.99,2.5-1.49,5.15-1.49,7.92v1.56c0,2.73,0.48,5.33,1.45,7.81
			c0.97,2.48,2.39,4.69,4.28,6.62c1.89,1.93,4.19,3.47,6.92,4.61c2.73,1.14,5.87,1.71,9.45,1.71c3.52,0,6.64-0.57,9.37-1.71
			c2.73-1.14,5.03-2.68,6.92-4.61c1.88-1.93,3.31-4.14,4.28-6.62c0.97-2.48,1.45-5.08,1.45-7.81v-1.56c0-2.78-0.5-5.42-1.49-7.92
			C100.99,57.05,99.55,54.82,97.64,52.86z M91.76,74.72c-0.92,1.91-2.25,3.42-3.98,4.54c-1.74,1.12-3.84,1.67-6.32,1.67
			c-2.53,0-4.66-0.56-6.4-1.67c-1.73-1.11-3.06-2.63-3.98-4.54c-0.92-1.91-1.37-4.08-1.37-6.51c0-2.43,0.47-4.61,1.41-6.55
			c0.94-1.93,2.29-3.46,4.05-4.57c1.76-1.12,3.86-1.67,6.29-1.67c2.43,0,4.51,0.56,6.25,1.67c1.74,1.11,3.07,2.64,4.02,4.57
			c0.94,1.93,1.41,4.12,1.41,6.55C93.13,70.65,92.68,72.82,91.76,74.72z"/>
		<path class="st0" d="M139.55,36.61h-9.74v11.38h-6.4v7.59h6.4V73.2c0,3.92,0.58,7.03,1.75,9.34c1.17,2.31,2.95,3.94,5.36,4.91
			c2.4,0.97,5.49,1.45,9.26,1.45h5.8v-8.85h-6.32c-1.98,0-3.51-0.53-4.57-1.6c-1.07-1.07-1.6-2.59-1.6-4.57l0.04-18.3h12.46v-7.59
			h-12.44L139.55,36.61z"/>
		<path class="st0" d="M183.73,46.72h-0.44c-3.17,0-5.79,0.74-7.85,2.23c-1.94,1.4-3.39,3.45-4.42,6.04V37.08l-10.34-3v54.3h10.34
			V65.76v-0.74c0-2.68,0.78-4.85,2.34-6.51c1.56-1.66,3.61-2.49,6.13-2.49c2.33,0,4.24,0.76,5.73,2.27
			c1.49,1.51,2.23,3.53,2.23,6.06v24.02h10.34V65.31c0-6.05-1.19-10.66-3.57-13.83C191.84,48.31,188.34,46.72,183.73,46.72z"/>
		<path class="st0" d="M237.47,49.43c-2.95-1.91-6.61-2.86-10.97-2.86c-3.32,0-6.26,0.58-8.81,1.75c-2.55,1.17-4.68,2.73-6.36,4.69
			c-1.69,1.96-2.97,4.19-3.83,6.69c-0.87,2.5-1.3,5.09-1.3,7.77v1.41c0,2.58,0.43,5.11,1.3,7.59c0.87,2.48,2.16,4.72,3.87,6.73
			s3.87,3.61,6.47,4.8c2.6,1.19,5.64,1.79,9.11,1.79c3.32,0,6.29-0.57,8.89-1.71c2.6-1.14,4.75-2.75,6.43-4.84
			c1.69-2.08,2.83-4.51,3.42-7.29h-9.6c-0.44,1.49-1.46,2.74-3.05,3.76c-1.59,1.02-3.62,1.53-6.1,1.53c-2.53,0-4.61-0.56-6.25-1.67
			c-1.64-1.12-2.85-2.65-3.64-4.61c-0.51-1.27-0.8-2.7-0.98-4.2h30.29v-3.79c0-3.57-0.74-6.9-2.23-10
			C242.64,53.85,240.42,51.34,237.47,49.43z M220.69,56.73c1.59-1.07,3.52-1.6,5.8-1.6c2.28,0,4.16,0.49,5.65,1.49
			c1.49,0.99,2.61,2.41,3.38,4.24c0.43,1.04,0.71,2.22,0.9,3.5h-20.25c0.2-1.13,0.5-2.18,0.9-3.12
			C217.9,59.29,219.11,57.79,220.69,56.73z"/>
		<path class="st0" d="M294.93,59.55c-0.99-2.5-2.44-4.74-4.35-6.69c-1.91-1.96-4.23-3.5-6.95-4.61c-2.73-1.11-5.8-1.67-9.22-1.67
			c-3.42,0-6.51,0.56-9.26,1.67c-2.75,1.12-5.08,2.65-6.99,4.61c-1.91,1.96-3.36,4.19-4.35,6.69c-0.99,2.5-1.49,5.15-1.49,7.92v1.56
			c0,2.73,0.48,5.33,1.45,7.81c0.97,2.48,2.39,4.69,4.28,6.62s4.19,3.47,6.92,4.61c2.73,1.14,5.87,1.71,9.45,1.71
			c3.52,0,6.64-0.57,9.37-1.71c2.73-1.14,5.03-2.68,6.92-4.61c1.88-1.93,3.31-4.14,4.28-6.62c0.97-2.48,1.45-5.08,1.45-7.81v-1.56
			C296.41,64.7,295.92,62.06,294.93,59.55z M284.7,74.72c-0.92,1.91-2.25,3.42-3.98,4.54c-1.74,1.12-3.84,1.67-6.32,1.67
			c-2.53,0-4.66-0.56-6.4-1.67c-1.73-1.11-3.06-2.63-3.98-4.54c-0.92-1.91-1.37-4.08-1.37-6.51c0-2.43,0.47-4.61,1.41-6.55
			c0.94-1.93,2.29-3.46,4.05-4.57c1.76-1.12,3.86-1.67,6.29-1.67c2.43,0,4.51,0.56,6.25,1.67c1.74,1.11,3.07,2.64,4.02,4.57
			c0.94,1.93,1.41,4.12,1.41,6.55C286.07,70.65,285.62,72.82,284.7,74.72z"/>
		<polygon class="st0" points="115.13,80.47 114.23,87.47 107.23,88.37 114.23,89.28 115.13,96.28 116.03,89.28 123.04,88.37 
			116.03,87.47 		"/>
	</g>
</g>
</svg>
