<?xml version="1.0" encoding="utf-8"?>
<!-- Generator: Adobe Illustrator 27.7.0, SVG Export Plug-In . SVG Version: 6.00 Build 0)  -->
<svg version="1.1" id="Layer_1" xmlns="http://www.w3.org/2000/svg" xmlns:xlink="http://www.w3.org/1999/xlink" x="0px" y="0px"
	 viewBox="0 0 117.02 138.17" style="enable-background:new 0 0 117.02 138.17;" xml:space="preserve">
<style type="text/css">
	.st0{fill:#231F20;}
</style>
<g>
	<path class="st0" d="M85.4,58.65v-7.74H72.96l0.02-7.38l-9.74-4v11.38h-6.4h-6.4H40.4h-5.87v7.74h5.87v33.32
		c0,1.83-0.48,3.25-1.45,4.24c-0.97,0.99-2.37,1.49-4.2,1.49h-3.12v8.85h2.45c3.87,0,6.99-0.5,9.37-1.49
		c2.38-0.99,4.14-2.59,5.28-4.8c1.14-2.21,1.71-5.17,1.71-8.89V58.65h6.4h6.4v17.48c0,3.92,0.58,7.03,1.75,9.34
		c1.17,2.31,2.95,3.94,5.36,4.91c2.4,0.97,5.49,1.45,9.26,1.45h5.8v-8.85h-6.32c-1.98,0-3.51-0.53-4.57-1.6
		c-1.07-1.07-1.6-2.59-1.6-4.57l0.04-18.15H85.4z"/>
	<polygon class="st0" points="45.68,47.44 46.58,40.43 53.59,39.53 46.58,38.63 45.68,31.62 44.78,38.63 37.78,39.53 44.78,40.43 	
		"/>
</g>
</svg>
